<svg width="28" height="28" viewBox="0 0 28 28" fill="none" xmlns="http://www.w3.org/2000/svg">
<path d="M5.83334 14.8861C5.83334 13.3021 5.83334 12.5101 6.15355 11.8139C6.47375 11.1177 7.0751 10.6022 8.2778 9.57134L9.44447 8.57134C11.6183 6.70803 12.7053 5.77637 14 5.77637C15.2947 5.77637 16.3817 6.70803 18.5556 8.57134L19.7222 9.57134C20.9249 10.6022 21.5263 11.1177 21.8465 11.8139C22.1667 12.5101 22.1667 13.3021 22.1667 14.8861V19.8333C22.1667 22.0332 22.1667 23.1331 21.4833 23.8165C20.7998 24.4999 19.6999 24.4999 17.5 24.4999H10.5C8.30012 24.4999 7.20018 24.4999 6.51676 23.8165C5.83334 23.1331 5.83334 22.0332 5.83334 19.8333V14.8861Z" stroke="black" stroke-width="2"/>
<path d="M16.9167 24.5V18.5C16.9167 17.9477 16.469 17.5 15.9167 17.5H12.0833C11.5311 17.5 11.0833 17.9477 11.0833 18.5V24.5" stroke="black" stroke-width="2" stroke-linecap="round" stroke-linejoin="round"/>
</svg>
