<svg width="35" height="35" viewBox="0 0 35 35" fill="none" xmlns="http://www.w3.org/2000/svg">
<path id="Vector" d="M24.1192 33.9037C23.6582 34.1736 23.153 34.3307 22.6501 34.5007C21.8041 34.7867 21.0056 34.6059 20.2174 34.2966C19.7348 34.1073 19.8964 34.1122 19.4326 34.2816C18.8387 34.4984 18.2289 34.6433 17.6068 34.7458C17.1683 34.818 16.7397 34.7427 16.3207 34.6353C15.8628 34.5179 15.4131 34.3669 14.9646 34.2164C14.8429 34.1717 14.7096 34.1702 14.587 34.2124C14.1917 34.3394 13.7966 34.473 13.393 34.5675C12.8331 34.6987 12.2743 34.6699 11.7319 34.4587C11.192 34.2485 10.6483 34.048 10.1125 33.8279C9.56803 33.6006 9.06659 33.2814 8.63006 32.8844C7.89873 32.2291 7.18568 31.5571 6.63452 30.7325C6.55316 30.6108 6.40827 30.5247 6.27957 30.4428C5.84581 30.1667 5.38992 29.9226 4.97251 29.6243C4.37374 29.193 3.85508 28.6602 3.43998 28.0501C3.26081 27.7962 3.13422 27.509 3.06763 27.2054C3.84504 28.2043 4.69374 29.1161 5.89052 29.682C5.88119 29.6207 5.88473 29.5825 5.86968 29.5541C5.46101 28.7847 5.21799 27.9703 5.19515 27.0953C5.19054 27.0663 5.18314 27.0378 5.17305 27.0103C4.99625 26.9462 4.81263 26.8806 4.62974 26.813C4.26026 26.6766 3.9094 26.5061 3.59126 26.2696C3.18856 25.9704 2.88869 25.5896 2.66799 25.1426C2.54029 24.8764 2.46922 24.5866 2.45927 24.2915C2.44842 24.064 2.36049 23.9273 2.1528 23.8207C1.71248 23.5946 1.34433 23.2705 1.01777 22.898C0.654994 22.4842 0.428866 21.9995 0.257864 21.4835C-0.0369682 20.5937 -0.0556544 19.6848 0.0847268 18.7696C0.16512 18.2455 0.268669 17.7244 0.378332 17.2054C0.426631 16.9769 0.435495 16.7614 0.38253 16.5312C0.211706 15.8068 0.123563 15.0654 0.119792 14.3212C0.119792 13.3452 0.302113 12.4004 0.688806 11.5061C0.986487 10.8176 1.48849 10.2765 2.07243 9.81411C2.89734 9.16094 3.83487 8.72877 4.83817 8.42989C4.92286 8.40465 5.00745 8.37908 5.10776 8.34898C5.08998 7.61478 5.32944 6.94789 5.61136 6.28702C5.24428 6.29087 4.16998 6.83889 3.43873 7.38237C2.78512 7.86817 2.21402 8.43716 1.68464 9.06719C1.71941 8.99188 1.75017 8.91441 1.78951 8.84155C2.73363 7.0937 4.10923 5.84395 6.00876 5.20495C6.14045 5.16325 6.25293 5.07592 6.32596 4.95866C6.92834 4.05334 7.66495 3.27129 8.50168 2.5779C8.83023 2.30564 9.18431 2.10375 9.60509 2.02566C9.86849 1.9768 10.1321 1.92913 10.4147 1.92383C10.3772 1.96118 10.34 1.9987 10.3023 2.03585C9.51657 2.81093 8.72312 3.57918 8.06387 4.47019C7.97301 4.59296 7.89991 4.72875 7.79489 4.89639C8.56388 4.92475 9.26743 5.09094 9.98235 5.29269C10.8835 4.17187 11.8566 3.12872 13.0034 2.20901C12.6301 2.05265 12.237 1.94833 11.8353 1.89898C11.4504 1.8513 11.0618 1.83497 10.6849 1.80567C11.5602 0.908259 13.9251 -0.0130221 15.8976 0.00013937C15.3758 0.155671 14.8471 0.302436 14.3257 0.471792C13.807 0.640265 13.3065 0.856423 12.761 1.13053C12.8684 1.15585 12.9179 1.16712 12.9672 1.17925C13.2604 1.25144 13.5583 1.30924 13.8453 1.40098C14.0586 1.46912 14.2311 1.43968 14.422 1.32889C14.9743 1.00839 15.553 0.741333 16.1675 0.560314C16.4415 0.479601 16.7162 0.391915 16.997 0.346979C17.1984 0.319168 17.403 0.323802 17.6029 0.360706C18.5487 0.519773 19.4243 0.873464 20.2481 1.35764C20.3913 1.44186 20.5199 1.46924 20.6851 1.42003C21.035 1.31592 21.3918 1.23545 21.7881 1.13451C20.776 0.593365 19.7228 0.274272 18.6489 0.011361C20.5556 -0.027706 22.8983 0.886773 23.7749 1.77279C23.3869 1.81883 23.0112 1.85044 22.64 1.91116C22.265 1.97255 21.8886 2.0416 21.4831 2.22942C21.5514 2.26974 21.5907 2.28604 21.6216 2.31219C22.5603 3.10306 23.4128 3.99074 24.1652 4.96051C24.4 5.26381 24.4056 5.25838 24.7642 5.14656C25.2256 5.00264 25.6928 4.8878 26.1923 4.88274C26.1997 4.74486 26.1285 4.64271 26.0644 4.54739C25.8958 4.29693 25.7231 4.04804 25.537 3.81027C25.2802 3.48205 25.0153 3.16019 24.7424 2.84467C24.6069 2.68857 24.5236 2.52791 24.5443 2.31674C24.5553 2.20491 24.5462 2.09112 24.5462 1.95217C24.8567 2.00968 25.1431 2.07494 25.3919 2.26124C26.1611 2.83706 26.7735 3.55529 27.301 4.35088C27.4273 4.5415 27.5499 4.73526 27.6621 4.93435C27.7353 5.06403 27.8356 5.13887 27.9746 5.18727C28.4612 5.35646 28.9353 5.55479 29.3846 5.81018C30.7453 6.58372 31.7762 7.66949 32.4773 9.06751C32.5003 9.1096 32.5072 9.15866 32.4966 9.20546C32.4386 9.13705 32.3794 9.06957 32.3227 9.00011C31.563 8.06398 30.6223 7.29069 29.5569 6.72648C29.2908 6.58544 29.0071 6.47695 28.7281 6.36172C28.641 6.32577 28.5429 6.31673 28.4095 6.28613C28.4324 6.3872 28.4414 6.45556 28.4635 6.51941C28.6611 7.09233 28.8174 7.67467 28.8714 8.29383C28.9377 8.3189 29.0033 8.34851 29.0716 8.36894C29.8505 8.60153 30.5959 8.91674 31.2862 9.34326C31.9919 9.77929 32.6259 10.3026 33.1251 10.9791C33.599 11.6213 33.8518 12.344 33.966 13.1234C34.0772 13.882 34.0408 14.6402 33.9374 15.3954C33.8787 15.8238 33.8061 16.2501 33.7195 16.6744C33.6769 16.8833 33.6976 17.0781 33.7473 17.2779C33.937 18.0399 34.0896 18.8084 34.1356 19.5946C34.1876 20.4713 34.0189 21.3471 33.6448 22.1417C33.4492 22.5635 33.1184 22.8875 32.7775 23.1955C32.4745 23.4708 32.1346 23.7026 31.7676 23.8842C31.6443 23.945 31.5856 24.0276 31.5681 24.1633C31.4042 25.4334 30.6837 26.2721 29.5292 26.7673C29.3349 26.8507 29.132 26.9139 28.9104 26.9946C28.805 27.9549 28.5447 28.8917 28.1397 29.7687C28.2303 29.7479 28.2826 29.7434 28.3287 29.7242C29.0528 29.4232 29.6513 28.9503 30.166 28.3669C30.513 27.9735 30.8263 27.5555 31.0523 27.078C31.0621 27.0574 31.0807 27.0409 31.1304 26.9778C31.1095 27.0873 31.101 27.1461 31.087 27.2037C30.8612 28.1255 30.2956 28.8174 29.5989 29.4274C29.0478 29.91 28.4588 30.3299 27.7836 30.6203C27.6336 30.6853 27.506 30.7932 27.417 30.9303C27.0751 31.4293 26.7152 31.9134 26.3048 32.3613C25.7503 32.9664 25.1125 33.451 24.3701 33.7996C24.2963 33.8343 24.2246 33.8733 24.1522 33.9106C24.3254 33.6938 24.5028 33.4803 24.6703 33.2592C25.3453 32.3686 26.0522 31.503 26.533 30.4774C26.9191 29.6539 27.271 28.8239 27.4661 27.9326C27.5562 27.521 27.417 27.1941 27.1111 26.9266C26.9275 26.7661 26.7769 26.767 26.5869 26.9253C26.5229 26.9763 26.4668 27.0365 26.4204 27.1038C26.2246 27.4043 26.0219 27.7014 25.8462 28.0136C25.5542 28.5327 25.2811 29.0624 25.0001 29.5876C24.9814 29.6224 24.9632 29.6576 24.9469 29.6887C25.3401 30.1409 25.8374 30.4009 26.4488 30.5676C26.3289 30.6269 26.2609 30.6683 26.1875 30.6957C25.5365 30.9385 24.8662 31.0662 24.1701 30.9954C24.007 30.9788 23.8875 31.014 23.7785 31.1325C23.6404 31.2829 23.4929 31.4247 23.3488 31.5695C22.5575 32.3649 21.7334 33.1203 20.7571 33.6901C20.7401 33.6999 20.7334 33.7278 20.7076 33.7713C21.8143 34.1093 22.9897 34.155 24.1192 33.9037ZM12.8474 26.1154C13.0166 26.2435 13.1601 26.3652 13.316 26.4681C14.1719 27.0321 14.9984 26.7739 15.6262 26.215C15.7594 26.0964 15.7582 26.0403 15.6414 25.9065C15.5554 25.8081 15.4609 25.7173 15.3683 25.625C14.4231 24.6836 13.5286 23.6987 12.7496 22.6124C11.6238 21.0425 10.6451 19.3821 9.71988 17.6895C9.14797 16.6432 8.60395 15.5817 8.03413 14.5342C7.85339 14.2049 7.64975 13.8888 7.4247 13.588C7.30133 13.4221 7.13171 13.2793 6.95724 13.1653C6.73195 13.0179 6.54622 13.0876 6.46057 13.3464C6.40311 13.5159 6.37893 13.695 6.38936 13.8736C6.40289 14.0533 6.35385 14.1869 6.2492 14.3211C6.0299 14.5973 5.87002 14.9158 5.77958 15.2566C5.58314 16.0145 5.68367 16.7149 6.20053 17.3291C6.32989 17.4889 6.49312 17.6181 6.67844 17.7072L7.56734 16.6701C7.60228 16.6947 7.61348 16.6988 7.61387 16.7036C7.61773 16.7523 7.62286 16.8011 7.62197 16.8498C7.60385 17.8767 7.77404 18.8837 7.93709 19.892C7.95919 20.0286 8.02428 20.1026 8.1338 20.1738C8.35432 20.3138 8.56684 20.4659 8.77036 20.6296C9.07239 20.8783 9.36015 21.1442 9.66051 21.4085C9.84394 21.3152 10.0361 21.2093 10.2351 21.1187C10.4422 21.0244 10.6582 20.9549 10.9012 20.9574C11.0353 21.215 11.1733 21.4652 11.298 21.7218C11.7572 22.6649 12.0178 23.6923 12.0637 24.7403C12.068 24.8453 12.047 24.9497 12.0023 25.0448C11.4583 26.1625 10.8555 27.247 10.1563 28.2764C10.0829 28.3845 10.0151 28.4964 9.94884 28.6089C9.83927 28.7949 9.84062 28.9787 9.96025 29.1627C10.2594 29.6228 10.6378 30.0006 11.1173 30.2706C11.3588 30.4066 11.618 30.471 11.8957 30.398C12.4 30.2708 12.842 29.9672 13.1418 29.5422C13.269 29.3658 13.2778 29.1732 13.1675 28.9889C13.0604 28.8057 12.9411 28.63 12.8102 28.4631C12.483 28.0551 12.1446 27.6562 11.8112 27.2531C11.7603 27.1915 11.7122 27.1276 11.6501 27.0486L12.8474 26.1154ZM22.8647 27.0644C22.7927 27.1542 22.7421 27.2177 22.691 27.2808C22.3568 27.6937 22.0171 28.1024 21.6909 28.5215C21.5688 28.6848 21.4606 28.8581 21.3675 29.0396C21.2699 29.2213 21.296 29.4034 21.4201 29.5692C21.713 29.9606 22.0844 30.2439 22.5606 30.3722C22.8731 30.4563 23.1784 30.4313 23.4564 30.2507C23.8815 29.9746 24.2177 29.6102 24.4933 29.1879C24.5949 29.0322 24.6141 28.8676 24.5223 28.7013C24.4277 28.5298 24.3325 28.3581 24.2274 28.193C23.6124 27.2274 23.0355 26.2402 22.5266 25.2143C22.4772 25.1147 22.4321 25.0012 22.4291 24.8928C22.4259 24.6886 22.4381 24.4844 22.4656 24.282C22.595 23.2513 22.9071 22.2749 23.3556 21.3403C23.4221 21.2018 23.4922 21.065 23.5642 20.9204C23.6433 20.9332 23.7112 20.9318 23.7686 20.9556C24.0688 21.08 24.3664 21.2108 24.6766 21.3444C25.0705 20.8648 25.5095 20.3955 26.0502 20.03C26.1126 19.9879 26.1514 19.8859 26.1681 19.8048C26.3639 18.8686 26.4749 17.9166 26.4996 16.9604C26.5009 16.901 26.5141 16.8418 26.5277 16.7366L27.4193 17.6869C28.0853 17.1691 28.4427 16.5261 28.3473 15.6679C28.2857 15.1139 28.0584 14.6339 27.7245 14.198C27.647 14.0968 27.6022 14.0036 27.6268 13.8645C27.6609 13.6715 27.6489 13.4725 27.5626 13.2878C27.4612 13.0705 27.3062 13.0165 27.1072 13.1454C27.0059 13.2109 26.9042 13.292 26.8359 13.3894C26.6394 13.6695 26.4352 13.9488 26.2783 14.2513C25.8683 15.0415 25.4856 15.8457 25.0854 16.641C24.2518 18.2976 23.4295 19.9602 22.4552 21.5415C21.8885 22.4612 21.2899 23.3591 20.5663 24.1639C20.0747 24.7106 19.5579 25.2348 19.0485 25.7653C18.741 26.0856 18.7391 26.0993 19.106 26.3676C19.9293 26.9701 20.6642 26.9417 21.4434 26.2773C21.5045 26.2252 21.5664 26.1739 21.6382 26.1134L22.8647 27.0644ZM17.2537 3.36779C17.3455 3.44821 17.4141 3.50547 17.4796 3.56617C17.9829 4.03288 18.4518 4.53544 18.8826 5.0699C18.9954 5.20967 19.1069 5.3512 19.2288 5.48287C19.4281 5.69824 19.5277 5.72282 19.7916 5.60736C20.3035 5.38368 20.7455 5.02587 21.0709 4.57175C21.136 4.47828 21.1841 4.37409 21.2131 4.26395C21.2975 3.96035 21.1893 3.69744 20.9976 3.46994C20.5557 2.93726 19.9522 2.56321 19.2785 2.40452C18.9937 2.3354 18.7051 2.36226 18.4473 2.51502C18.1879 2.66876 17.9361 2.83571 17.6861 3.00455C17.5447 3.10002 17.4138 3.21081 17.2675 3.32303C17.1867 3.25715 17.1148 3.19235 17.0367 3.13599C16.7591 2.93555 16.4833 2.73204 16.1991 2.5411C15.9581 2.37918 15.6829 2.33444 15.4003 2.38274C14.5839 2.52236 13.9202 2.92934 13.4134 3.57801C13.1662 3.8944 13.1852 4.24836 13.4206 4.57661C13.6917 4.95461 14.0399 5.24696 14.4385 5.48181C14.9097 5.75928 14.9621 5.74612 15.3261 5.34791C15.7889 4.84183 16.2563 4.34014 16.7286 3.84283C16.8854 3.67826 17.0659 3.53631 17.2537 3.36779ZM9.60762 29.6998C9.26316 29.2691 9.02252 28.7588 8.76538 28.258C8.55676 27.8501 8.29303 27.4728 7.98158 27.1367C7.88794 27.0347 7.77951 26.9472 7.65991 26.8773C7.42354 26.7425 7.20338 26.7747 7.00989 26.9639C6.75827 27.2098 6.60193 27.5064 6.66799 27.8648C6.72646 28.1688 6.8058 28.4683 6.90543 28.7614C7.19332 29.6292 7.65205 30.4141 8.16395 31.1618C8.81132 32.1074 9.56828 32.9649 10.4007 33.7559C10.6058 33.9507 10.8343 34.0307 11.1027 34.0422C11.5261 34.0604 11.9467 34.0952 12.3738 34.0533C12.8282 34.0122 13.2787 33.9355 13.721 33.8239C13.7775 33.8092 13.8291 33.7761 13.8858 33.7502C13.8754 33.729 13.8623 33.7091 13.847 33.6911C13.8144 33.6665 13.7805 33.6437 13.7454 33.6228C12.892 33.1111 12.1378 32.4752 11.4347 31.7757C11.2088 31.5509 10.9837 31.3254 10.7594 31.0992C10.6867 31.0255 10.6145 30.9865 10.5008 31.0026C9.7244 31.1127 8.97105 30.9783 8.22703 30.7687C8.12923 30.7412 8.0374 30.6925 7.90126 30.6365C8.15064 30.5493 8.35295 30.4931 8.54242 30.4082C8.73605 30.3215 8.92218 30.219 9.09891 30.1016C9.27092 29.9869 9.42535 29.8455 9.60762 29.6998ZM17.2742 32.5559C17.1128 32.4147 16.9675 32.2955 16.8312 32.1667C16.2846 31.6503 15.7418 31.1299 15.1952 30.6136C15.0826 30.507 14.9642 30.4067 14.8404 30.3133C14.7793 30.2636 14.7044 30.2341 14.6259 30.2285C14.5474 30.223 14.4691 30.2419 14.4017 30.2825C13.9736 30.5195 13.6039 30.8256 13.3427 31.2439C13.1766 31.5099 13.1995 31.7979 13.4043 32.0403C13.5242 32.1849 13.6611 32.3146 13.8119 32.4267C14.4491 32.8871 15.1629 33.2309 15.9202 33.4421C16.0513 33.4794 16.1487 33.4672 16.2583 33.3879C16.5886 33.1488 16.9257 32.9191 17.2724 32.6771C17.3252 32.7142 17.3844 32.756 17.4439 32.7974C17.7389 33.0028 18.0355 33.2058 18.3279 33.4149C18.4082 33.4723 18.4787 33.4813 18.5764 33.4574C19.2605 33.2891 19.9076 32.9959 20.4851 32.5924C20.6925 32.4474 20.8817 32.2779 21.0486 32.0876C21.2765 31.8288 21.2888 31.5148 21.1124 31.224C20.8643 30.8149 20.5085 30.5199 20.0921 30.2938C19.939 30.2107 19.7918 30.2249 19.6602 30.3398C19.5187 30.4634 19.3788 30.5889 19.242 30.7176C18.6528 31.2722 18.0643 31.8275 17.4765 32.3834C17.4178 32.4387 17.354 32.4881 17.2742 32.5559ZM5.28276 25.6213C5.47395 24.7592 5.6781 23.9309 5.94975 23.0915C6.00114 23.1753 6.03501 23.2305 6.06884 23.2857C6.08657 23.2259 6.07621 23.1786 6.07066 23.1307C6.01219 22.6283 5.93227 22.1271 5.90165 21.623C5.85416 20.8407 6.00991 20.0784 6.20829 19.3264C6.24719 19.1791 6.22388 19.0913 6.11518 18.9862C5.64522 18.5322 5.18557 18.0676 4.72163 17.6073C4.67677 17.5628 4.62812 17.5221 4.58675 17.4846C4.56602 17.4902 4.54592 17.498 4.52678 17.5078C4.50723 17.5225 4.48899 17.539 4.47227 17.5569C3.88843 18.1539 3.54814 18.8734 3.39607 19.6887C3.38272 19.744 3.38459 19.8018 3.40148 19.8561C3.41837 19.9103 3.44964 19.959 3.49199 19.9969C3.90483 20.4041 4.31244 20.8166 4.72394 21.2251C4.87881 21.3789 5.03915 21.5271 5.20865 21.689C4.46078 22.4835 3.77297 23.2982 3.24381 24.2446C3.79291 24.8987 4.46581 25.3441 5.28276 25.6213ZM30.8147 24.1657C30.5351 23.7216 30.2304 23.2939 29.9021 22.8846C29.5694 22.475 29.2195 22.0792 28.873 21.6723C28.9238 21.6174 28.9666 21.5688 29.0118 21.5225C29.5026 21.0197 29.9907 20.514 30.4873 20.017C30.6038 19.9004 30.6388 19.7894 30.6078 19.6262C30.4514 18.804 30.0411 18.1209 29.4801 17.5167C29.4566 17.4982 29.4311 17.4824 29.404 17.4694C29.3418 17.5304 29.2788 17.5925 29.2153 17.6541C28.8343 18.024 28.4533 18.3939 28.0721 18.7637C27.7639 19.0627 27.7654 18.948 27.8668 19.4114C28.0506 20.251 28.2052 21.0938 28.1733 21.958C28.1597 22.3243 28.1209 22.6897 28.0944 23.0443C28.1327 23.0711 28.1871 23.0893 28.2045 23.1253C28.237 23.2003 28.2612 23.2785 28.2769 23.3586C28.4303 24.01 28.5816 24.6618 28.735 25.3132C28.758 25.4108 28.7889 25.5065 28.8189 25.613C29.6319 25.3023 30.2853 24.8359 30.8147 24.1657ZM22.1891 11.5686C21.8275 11.1708 21.4537 10.8313 21.0108 10.5762C20.8613 10.4926 20.7047 10.4224 20.5429 10.3663C20.3192 10.2838 20.0768 10.2657 19.8434 10.3142C19.3861 10.4086 19.035 10.6611 18.7814 11.0437C18.4157 11.5954 18.3104 12.206 18.4441 12.8489C18.6148 13.6696 19.1151 14.2694 19.7805 14.745C20.1569 15.014 20.2378 15.0041 20.4738 14.6124C20.8108 14.053 21.13 13.4829 21.4506 12.9138C21.6988 12.4734 21.9376 12.0276 22.1891 11.5686ZM12.2913 11.5684C12.3014 11.6005 12.3133 11.632 12.3272 11.6627C12.7347 12.3785 13.1388 13.0964 13.5525 13.8088C13.7407 14.1329 13.9385 14.4525 14.1499 14.7619C14.2886 14.9649 14.3765 14.9757 14.5803 14.8357C15.2288 14.3903 15.7407 13.8216 15.99 13.0683C16.2575 12.2604 16.1297 11.4974 15.556 10.8498C15.1827 10.4286 14.7014 10.2169 14.1299 10.3269C13.3389 10.4791 12.8043 11.0166 12.2913 11.5684ZM18.4546 19.4413C18.4235 20.3024 19.1291 21.0262 19.8491 21.1774C20.6128 21.3377 21.4068 20.9248 21.7586 20.1751C22.1991 19.2362 21.7366 18.0382 20.7638 17.5966C20.3664 17.4162 19.9655 17.4114 19.5832 17.6187C18.8629 18.0095 18.4986 18.6296 18.4546 19.4413H18.4546ZM16.0772 19.4015C16.0636 18.6533 15.5889 17.9221 14.9102 17.6049C14.5144 17.4198 14.1225 17.4243 13.7321 17.625C12.9314 18.0369 12.4803 19.006 12.6846 19.8805C12.857 20.6183 13.5752 21.2092 14.3083 21.2164C15.2732 21.2259 16.0949 20.3827 16.0771 19.4015H16.0772ZM17.1225 9.1676C17.9839 9.1672 18.7732 8.58689 18.9873 7.89589C19.0678 7.64563 19.0769 7.3779 19.0136 7.12275C18.825 6.36572 18.0579 5.74951 17.2791 5.72854C16.513 5.70789 15.7399 6.27629 15.514 7.03772C15.3901 7.45545 15.4166 7.87116 15.6536 8.24138C16.0252 8.82189 16.5668 9.13253 17.1225 9.1676H17.1225ZM10.1212 15.5562C10.1317 15.981 10.2362 16.3527 10.5115 16.6593C11.4438 17.6978 12.8775 17.2438 13.3387 16.1911C13.4532 15.9338 13.4701 15.6437 13.3863 15.3749C13.1832 14.7128 12.8202 14.1479 12.2872 13.6981C11.998 13.454 11.693 13.4252 11.3599 13.6143C10.9656 13.838 10.6668 14.1535 10.4279 14.5328C10.2362 14.8405 10.1303 15.1938 10.1212 15.5562ZM17.2454 14.9292C17.0421 14.9888 16.8179 15.0369 16.6075 15.1197C16.0547 15.3373 15.6324 15.7396 15.2164 16.145C15.0879 16.2702 15.0834 16.3413 15.1866 16.4918C15.3249 16.6936 15.4767 16.8865 15.6265 17.0803C16.0074 17.573 16.4893 17.9451 17.0254 18.2547C17.1827 18.3456 17.3225 18.35 17.4859 18.2666C18.2908 17.8561 18.8743 17.2171 19.3556 16.4724C19.4567 16.316 19.4437 16.2373 19.294 16.1107C19.0011 15.863 18.7081 15.6134 18.397 15.3897C18.2137 15.2579 18.0017 15.1599 17.7914 15.0736C17.6275 15.0063 17.4466 14.9805 17.2454 14.9292ZM24.2883 15.5529C24.2883 15.5121 24.2899 15.4712 24.2878 15.4305C24.2861 15.398 24.2802 15.3657 24.2757 15.3333C24.1818 14.6728 23.824 14.1714 23.3191 13.7622C22.8253 13.362 22.4436 13.3861 22.0115 13.8444C21.6075 14.2729 21.3068 14.7659 21.149 15.3346C21.0973 15.5146 21.0798 15.7027 21.0974 15.8892C21.1876 16.6921 22.0862 17.3502 22.8956 17.2234C23.7137 17.0952 24.2871 16.4087 24.2883 15.5529ZM18.9609 22.9831C19.0002 22.173 18.1523 21.3886 17.396 21.3128C16.5555 21.2285 15.8132 21.8851 15.6171 22.5104C15.5603 22.689 15.5362 22.8763 15.5457 23.0635C15.5976 23.8836 16.399 24.5997 17.2437 24.5893C17.9192 24.581 18.3951 24.2246 18.7559 23.687C18.8987 23.4808 18.9707 23.2337 18.9609 22.9831ZM9.63414 21.4629C9.58726 21.5004 9.54778 21.5281 9.51283 21.5606C9.42913 21.6386 9.34498 21.7163 9.26557 21.7986C8.72769 22.3556 8.41019 23.0263 8.24516 23.7762C8.13027 24.2895 8.15262 24.824 8.30993 25.326C8.40977 25.6498 8.56398 25.9473 8.82129 26.1776C9.07355 26.4033 9.3351 26.4218 9.59782 26.2124C9.745 26.0959 9.87459 25.9588 9.98255 25.8053C10.8848 24.5011 10.7494 22.586 9.63414 21.4629ZM24.6821 21.3994C24.6473 21.4456 24.6265 21.4705 24.6087 21.4973C24.2297 22.0676 24.0325 22.7018 23.9645 23.3771C23.8914 24.1039 23.9553 24.8114 24.2957 25.4751C24.4506 25.7772 24.6373 26.0522 24.926 26.2409C25.163 26.3958 25.4144 26.3825 25.6255 26.1956C25.7345 26.0974 25.8302 25.9855 25.9104 25.8626C26.2139 25.4032 26.3346 24.885 26.2976 24.3461C26.2267 23.3129 25.8181 22.4235 25.0652 21.703C24.9492 21.5921 24.8131 21.5023 24.6821 21.3994ZM7.86718 11.7883C7.90121 12.0216 7.91138 12.2613 7.97397 12.4865C8.139 13.0795 8.65935 13.3397 9.23703 13.13C9.3827 13.077 9.52186 13.0076 9.65182 12.9231C10.0356 12.6731 10.3813 12.3688 10.6779 12.0198C10.9437 11.7076 10.9495 11.5789 10.7336 11.2352C10.7292 11.2283 10.7249 11.2214 10.7203 11.2146C10.3844 10.7119 9.99816 10.2447 9.56752 9.82037C9.45063 9.70651 9.32103 9.60648 9.18127 9.52227C8.94512 9.38071 8.75074 9.41469 8.57353 9.62962C8.46334 9.7606 8.36978 9.9047 8.29498 10.0587C8.03835 10.6041 7.90428 11.1811 7.86718 11.7883ZM10.2527 7.26433C10.2609 7.81287 10.6622 8.76325 11.0419 9.15353C11.2778 9.39613 11.5474 9.47645 11.8652 9.34751C12.4099 9.12652 12.8587 8.78135 13.1733 8.28148C13.3896 7.93771 13.4169 7.56668 13.2135 7.20995C12.8782 6.62178 12.3846 6.22052 11.713 6.08338C10.9419 5.92581 10.2414 6.50305 10.2527 7.26433ZM24.1279 7.26485C24.1085 7.14743 24.1021 7.02347 24.0667 6.90848C23.8635 6.24945 23.2097 5.91187 22.5503 6.12456C22.0227 6.29475 21.6325 6.64538 21.3255 7.09346C21.0264 7.53007 21.0382 8.01336 21.3548 8.43728C21.6031 8.77362 21.9251 9.04864 22.2962 9.24126C22.8364 9.52119 23.1835 9.45057 23.4933 8.92249C23.7223 8.53226 23.8801 8.09911 24.0541 7.67863C24.1055 7.55435 24.1039 7.40815 24.1279 7.26485ZM17.2961 30.5759C17.9688 30.5486 18.5207 30.2144 18.9381 29.6389C19.072 29.4542 19.0798 29.2597 18.9543 29.0675C18.8741 28.9448 18.7976 28.8156 18.6971 28.7107C18.3413 28.3394 17.9773 27.976 17.613 27.6129C17.55 27.5502 17.4718 27.5023 17.3988 27.4502C17.36 27.4191 17.3119 27.4021 17.2622 27.4019C17.2125 27.4018 17.1643 27.4185 17.1253 27.4493C17.0519 27.5009 16.9731 27.548 16.9104 27.6108C16.5706 27.9522 16.2315 28.2942 15.9003 28.6437C15.7887 28.7614 15.6981 28.8997 15.6031 29.0322C15.4546 29.2393 15.4716 29.4401 15.6272 29.6395C15.8198 29.8862 16.0375 30.1048 16.3006 30.276C16.588 30.4631 16.9024 30.5647 17.2961 30.5759ZM26.3091 11.7736C26.282 11.2241 26.1584 10.6837 25.9439 10.177C25.8609 9.9823 25.7547 9.79828 25.6277 9.62896C25.4571 9.40355 25.2964 9.39171 25.0533 9.54479C25.0044 9.57439 24.9584 9.60845 24.9158 9.64652C24.3661 10.1564 23.9416 10.7642 23.5502 11.3975C23.4317 11.5894 23.4586 11.7732 23.5952 11.9413C23.7063 12.0823 23.8253 12.2169 23.9518 12.3442C24.2562 12.641 24.5711 12.9265 24.9707 13.095C25.5043 13.32 25.9154 13.1593 26.1546 12.6326C26.1845 12.5746 26.2065 12.5127 26.2198 12.4488C26.2538 12.2244 26.28 11.9987 26.3091 11.7736ZM30.3161 16.3595C30.9065 17.0584 31.3166 17.8471 31.6064 18.7135C32.1717 18.1426 32.8962 16.9777 33.1344 16.2711C33.1448 16.2402 33.1644 16.2089 33.1635 16.1782C33.161 16.0998 33.1716 16.0105 33.1384 15.9452C32.796 15.2721 32.3968 14.638 31.8326 14.1235C31.7568 14.0544 31.6721 13.9952 31.566 13.9111C31.2864 14.816 30.854 15.6075 30.3161 16.3595ZM2.46804 13.945C2.40736 13.9843 2.37851 13.9994 2.35393 14.0196C1.71251 14.546 1.29718 15.2335 0.971753 15.9811C0.933668 16.0686 0.939194 16.1935 0.967776 16.2881C1.03928 16.5302 1.12622 16.7675 1.22806 16.9985C1.50087 17.6063 1.89402 18.1377 2.31047 18.6527C2.34846 18.6997 2.39334 18.7411 2.45684 18.8081C2.70829 17.8865 3.13235 17.0853 3.69272 16.355C3.15408 15.6128 2.74227 14.8298 2.46804 13.945ZM33.5883 17.5915L33.5379 17.592C33.4599 17.762 33.3836 17.9328 33.3035 18.1018C32.9025 18.948 32.3744 19.7128 31.7895 20.4397C31.6858 20.5687 31.6365 20.6912 31.6514 20.8607C31.6993 21.4054 31.7299 21.9516 31.7689 22.4971C31.7755 22.5423 31.7856 22.5869 31.7991 22.6306C31.8206 22.6278 31.8416 22.6222 31.8616 22.6139C32.7439 21.9996 33.4463 21.2301 33.8811 20.2381C34.0481 19.8571 34.1086 19.4548 34.0109 19.0416C33.9453 18.7641 33.8769 18.4867 33.798 18.2127C33.7376 18.0028 33.6588 17.7982 33.5883 17.5914V17.5915ZM5.2639 10.2818C5.24189 10.2777 5.21938 10.2769 5.19714 10.2796C4.53887 10.4486 3.94785 10.7465 3.43298 11.1936C3.34458 11.2704 3.3355 11.3595 3.3575 11.4581C3.42831 11.7759 3.49064 12.0963 3.58056 12.4087C3.65819 12.6936 3.80155 12.9563 3.99912 13.1758C4.3009 13.5037 4.60917 13.5646 5.01408 13.3862C5.38457 13.2229 5.69759 12.9752 6.00856 12.7232C6.08262 12.6632 6.10489 12.5995 6.06811 12.5101C5.9937 12.3293 5.91785 12.1487 5.85246 11.9645C5.65659 11.4126 5.46535 10.8589 5.2639 10.2818ZM28.7414 10.311C28.4832 11.0988 28.2304 11.8704 27.969 12.6683C28.1952 12.8373 28.4253 13.0187 28.6657 13.1851C28.7949 13.271 28.9317 13.3449 29.0743 13.4059C29.3922 13.5487 29.6894 13.4951 29.9317 13.2528C30.0747 13.1077 30.1973 12.9438 30.2963 12.7657C30.5028 12.3979 30.592 11.992 30.643 11.5745C30.6656 11.3898 30.6092 11.272 30.4663 11.1566C30.0144 10.7918 29.5065 10.5393 28.9579 10.3617C28.8822 10.3371 28.8026 10.325 28.7414 10.311ZM2.31045 22.6821C2.31045 22.5933 2.31067 22.5529 2.31045 22.5125C2.30684 21.9332 2.30178 21.3542 2.39305 20.7787C2.40376 20.7112 2.36113 20.6228 2.3183 20.5614C2.17834 20.3608 2.02458 20.1699 1.88044 19.9721C1.35931 19.2569 0.903147 18.5065 0.633385 17.6557C0.625846 17.6319 0.599548 17.614 0.570917 17.5804C0.399327 17.9847 0.293837 18.3849 0.188103 18.7872C0.0328909 19.3776 0.106532 19.9329 0.373715 20.4731C0.776912 21.298 1.37305 22.0136 2.1116 22.5592C2.16169 22.5964 2.2179 22.6253 2.31045 22.6821ZM7.26342 5.87906C7.05774 6.31131 6.89336 6.76204 6.77249 7.22522C6.67619 7.59949 6.62096 7.97675 6.67314 8.36438C6.70834 8.62497 6.81594 8.87047 6.98371 9.07296C7.1527 9.28092 7.34141 9.3134 7.56884 9.17867C7.67476 9.11721 7.77227 9.04228 7.85893 8.95576C8.36847 8.43473 8.7324 7.81687 9.01528 7.15177C9.14996 6.83501 9.08474 6.64103 8.81653 6.41723C8.73453 6.34985 8.64669 6.2899 8.55406 6.23811C8.16317 6.01596 7.73448 5.92726 7.26342 5.87904V5.87906ZM26.8016 5.86516C26.2607 5.88544 25.7832 6.02813 25.374 6.35418C25.0624 6.60253 25.0035 6.82966 25.1656 7.19678C25.403 7.73478 25.6749 8.25729 26.0503 8.71402C26.1935 8.88823 26.3728 9.03547 26.5478 9.18014C26.6823 9.29123 26.8384 9.28524 26.9761 9.1758C27.0645 9.10559 27.1555 9.02987 27.2178 8.93796C27.3569 8.73265 27.4554 8.50166 27.4421 8.25101C27.4306 7.95852 27.3962 7.66738 27.3393 7.38026C27.2244 6.85464 27.0438 6.34561 26.8016 5.86521V5.86516ZM2.26335 10.8673L2.21068 10.8446C1.7005 11.2522 1.23405 11.6994 0.887162 12.2644C0.476307 12.9339 0.429971 13.6641 0.516257 14.4148C0.537669 14.601 0.611163 14.7813 0.674957 15.017C0.747026 14.8947 0.78737 14.8268 0.827198 14.7586C0.979439 14.4983 1.11734 14.2284 1.28697 13.9802C1.58109 13.5496 1.8938 13.1315 2.20118 12.71C2.27005 12.6155 2.31167 12.5255 2.30465 12.3983C2.28091 11.9673 2.27519 11.5353 2.2635 11.1037C2.26153 11.0249 2.26335 10.946 2.26335 10.8673ZM31.767 10.8467C31.7479 11.3501 31.7387 11.8226 31.7079 12.2937C31.6958 12.4793 31.7462 12.6178 31.8665 12.7555C32.3998 13.366 32.8553 14.0332 33.2759 14.7248C33.3132 14.7862 33.3539 14.8456 33.4056 14.9253C33.4318 14.8777 33.4548 14.8285 33.4746 14.778C33.6169 14.3154 33.6418 13.8246 33.5468 13.35C33.4127 12.6738 33.069 12.104 32.6111 11.6019C32.3576 11.3207 32.0746 11.0675 31.767 10.8467ZM6.53242 24.6633C6.61966 25.2414 7.15408 26.1746 7.4549 26.3775C7.15614 25.8223 6.84429 25.2428 6.53242 24.6633ZM27.4388 25.2859L27.4894 25.3066L27.6376 24.9091L27.5978 24.8944L27.4388 25.2859Z" fill="white"/>
</svg>
